<svg xmlns:svg="http://www.w3.org/2000/svg" xmlns="http://www.w3.org/2000/svg" viewBox="0 0 780 201" version="1.1"><style>.s0{fill:#07EFE6;}</style><style>.s0{fill:#acdcdc;}</style><g transform="matrix(-1,0,0,-1,735.61998,422.92163)"><g transform="scale(0.1,0.1)"><path d="m7256.4 3160.7c0 0-9.5-0.2-26.1-0.6-16.6-0.3-40.3-0.7-68.8-1.1-28.5-0.3-61.7-0.6-97.2-0.9-35.6-0.1-73.5-0.3-111.5-0.4-37.9 0.1-75.9 0.3-111.5 0.4-35.6 0.1-68.8 0.7-97.2 0.9-28.5 0.3-52.2 0.9-68.8 1.1-16.6 0.4-26.1 0.6-26.1 0.6-1.5 0-2.6 1.2-2.6 2.7 0 1.4 1.2 2.6 2.6 2.6 0 0 9.5 0.2 26.1 0.6 16.6 0.3 40.3 0.9 68.8 1.1 28.5 0.3 61.7 0.9 97.2 0.9 35.6 0.1 73.5 0.3 111.5 0.4 37.9-0.1 75.9-0.3 111.5-0.4 35.6-0.3 68.8-0.7 97.2-0.9 28.5-0.5 52.2-0.8 68.8-1.1 16.6-0.4 26.1-0.6 26.1-0.6 1.5 0 2.6-1.2 2.6-2.7 0-1.4-1.2-2.5-2.6-2.6zm0-63.2c0 0-9.5-0.2-26.1-0.6-16.6-0.3-40.3-0.7-68.8-1.1-28.5-0.3-61.7-0.6-97.2-0.9-35.6-0.1-73.5-0.3-111.5-0.4-37.9 0.1-75.9 0.3-111.5 0.4-35.6 0.1-68.8 0.7-97.2 0.9-28.5 0.3-52.2 0.9-68.8 1.1-3.9 0.1-7.4 0.2-10.5 0.2l0 6c3.1 0.1 6.6 0.2 10.5 0.3 16.6 0.3 40.3 0.9 68.8 1.1 28.5 0.3 61.7 0.9 97.2 0.9 35.6 0.1 73.5 0.3 111.5 0.4 37.9-0.1 75.9-0.3 111.5-0.4 35.6-0.3 68.8-0.7 97.2-0.9 28.5-0.5 52.2-0.8 68.8-1.1 16.6-0.4 26.1-0.6 26.1-0.6 1.5 0 2.6-1.2 2.6-2.7 0-1.4-1.2-2.5-2.6-2.6zm-538.9 638.4c0 0 7.4 0.2 20.2 0.6 12.9 0.3 31.3 0.9 53.3 1.2 22.1 0.3 47.8 0.9 75.4 0.9 27.6 0.1 57 0.3 86.4 0.4 29.4-0.1 58.8-0.3 86.4-0.4 27.6-0.1 53.3-0.7 75.4-0.9 22.1-0.3 40.5-0.9 53.3-1.1 12.9-0.4 20.2-0.6 20.2-0.6 1.5 0 2.7-1.3 2.7-2.7 0-1.4-1.2-2.5-2.7-2.6 0 0-4-0.1-11.3-0.3l0-462.7-134.4 0 0 460.4c-1.1 0-2.1 0-3.2 0-27.6-0.1-57-0.3-86.4-0.4-29.4 0.1-58.8 0.3-86.4 0.4-2.9 0-5.8 0-8.6 0l0-460.4-121.5 0 0 462.5c-11.9 0.4-18.7 0.6-18.7 0.6-1.5 0.1-2.7 1.3-2.7 2.7 0.1 1.4 1.2 2.5 2.7 2.6zm554.5-468.3 0 640-95.1 0 0-29.9-440.7 0 0 29.9-95.1 0 0-640-9.2 0-85.2-93.4 0-70.6 23.1 0 0-584 95.1 0 0 456.3 59.6 0 0-328.1 74.9 0 0 328.1 326.1 0 0-328.1 74.9 0 0 328.1 41.8 0 0-456.3 95.1 0 0 584 19 0 0 70-84.2 94.1" fill="#acdcdc"/><g transform="translate(0,-28.64)" fill="#acdcdc"><path d="m1034.4 2988.3c0-1.3-1.1-2.4-2.4-2.4 0 0-6.7-0.2-18.4-0.6-11.7-0.2-28.4-0.8-48.5-1.1-20.1-0.2-43.5-0.8-68.6-0.9-25.1-0.1-51.8-0.2-78.6-0.4-26.8 0.1-53.5 0.3-78.6 0.4-25.1 0.1-48.5 0.7-68.6 0.9-20.1 0.3-36.8 0.8-48.5 1.1-11.7 0.4-18.4 0.6-18.4 0.6-1.4 0.1-2.5 1.2-2.4 2.6 0 1.3 1.1 2.4 2.4 2.4 0 0 6.7 0.2 18.4 0.6 11.7 0.2 28.4 0.8 48.5 1.1 20.1 0.2 43.5 0.8 68.6 0.9 25.1 0.1 51.8 0.2 78.6 0.4 26.8-0.1 53.5-0.3 78.6-0.4 25.1-0.1 48.5-0.6 68.6-0.9 20.1-0.3 36.8-0.8 48.5-1.1 11.7-0.3 18.4-0.6 18.4-0.6 1.4 0 2.5-1.2 2.4-2.6zm-2.4 93c0 0-6.7-0.2-18.4-0.6-11.7-0.2-28.4-0.8-48.5-1.1-20.1-0.2-43.5-0.8-68.6-0.9-25.1-0.1-51.8-0.3-78.6-0.4-26.8 0.1-53.5 0.3-78.6 0.4-25.1 0.1-48.5 0.7-68.6 0.9-20.1 0.3-36.8 0.9-48.5 1.1-11.7 0.4-18.4 0.6-18.4 0.6-0.5 0-0.9 0.2-1.3 0.5-4-1-7.6-3.4-10.1-6.8l-61.1-85c-2.2-3-3.4-6.7-3.4-10.4l0-18.9c0-9.9 8-17.9 17.9-17.9l24 0-47.8-369.5c0 0 10-25.1 83.7-25.1 73.7 0 81.7 25.1 81.7 25.1l-10.3 80c-0.5 2.9-1 6.2-1.6 9.7-0.9 5.5-1.9 11.6-2.9 18.4-2 13.5-4.5 29.3-6.9 46.2-2.3 16.9-4.8 35-7.2 53-1.7 13.8-3.4 27.6-5 40.9-0.5 4.1-1 8.2-1.5 12.2-2.1 16.9-3.6 32.8-5.1 46.4-1.3 11.4-2.1 21.2-2.8 28.7l-4.4 34 29.4 0-10.8-83.2c1.2-7.8 2.4-16.1 3.6-24.7 2.3-16.9 4.8-35 7.2-53 2.2-18.1 4.4-36.2 6.5-53.1 2.1-16.9 3.6-32.8 5.1-46.4 0.8-7.5 1.5-14.3 2-20.2 5.1-0.4 10.6-0.7 16.8-0.7 56.6 0 62.7 19.3 62.7 19.3l-33.9 262 203.6 0-33.9-262c0 0 7.6-18.7 62.1-19.2 0.6 6.1 1.2 13.1 2.1 20.8 1.5 13.6 3 29.5 5.1 46.4 2.1 17 4.3 35 6.5 53.1 2.5 18 4.9 36.1 7.2 53 2.3 16.9 4.9 32.7 6.9 46.2 2 13.5 4.1 24.7 5.3 32.6 0.4 2.3 0.8 4.3 1.1 6l-3 23.1 12.2 0-4.9-37.8c-0.3-3.3-0.6-6.9-1-10.9-0.4-4.3-0.9-9-1.4-14-1.5-13.6-3-29.5-5.1-46.4-2.1-16.9-4.3-35-6.5-53.1-2.5-18-4.9-36.1-7.2-53-2.3-16.9-4.9-32.7-6.9-46.2-1.1-7.3-2.2-13.9-3.1-19.7-0.3-1.6-0.5-3.1-0.8-4.5l-10.8-83.8c0 0 8-25.1 81.7-25.1 73.7 0 83.7 25.1 83.7 25.1l-47.8 369.5 34.5 0c9.9 0 17.9 8 17.9 17.9l0 18.9c0 3.7-1.2 7.4-3.3 10.4l-61.1 85c-3.3 4.7-8.7 7.4-14.5 7.4l-12.9 0c-0.4-0.6-1.1-1-1.9-1.1m-314.9 7.4 0 237.9c-16.7 0.2-32.3 0.5-46.3 0.7-13 0.2-24.5 0.5-34.3 0.7l0-240.7c9.7 0.3 21.3 0.6 34.3 0.7 14 0.2 29.6 0.5 46.3 0.7m372.8 293.6 37.9 227.6c6 35.9-21.7 68.6-58.1 68.6l-488.4 0c-36.4 0-64.1-32.7-58.1-68.6l37.9-227.6c4.1-24.8 23.3-43.8 47.3-48.2 3.1 0.1 7.8 0.2 13.8 0.4 11.7 0.2 28.4 0.8 48.5 1.1 20.1 0.2 43.5 0.8 68.6 0.9 25.1 0.1 51.8 0.3 78.6 0.4 26.8-0.1 53.5-0.3 78.6-0.4 25.1-0.1 48.5-0.6 68.6-0.9 20.1-0.3 36.8-0.8 48.5-1.1 11.7-0.3 18.4-0.6 18.4-0.6 0.7 0 1.3-0.3 1.7-0.8 27.9 0.9 51.5 21.4 56.1 49.1M817.9 3089.2c16.4-0.1 32.8-0.2 48.8-0.2l0 237.3c-16-0.1-32.4-0.2-48.8-0.2-10.6 0.1-21.2 0.1-31.8 0.2l0-237.1c10.5 0 21.1 0.1 31.8 0.1m147.2 238.1c-9.1-0.1-18.9-0.3-29.3-0.4l0-238.5c10.3-0.2 20.2-0.3 29.3-0.4 20.1-0.3 36.8-0.8 48.5-1.1 1 0 1.9-0.1 2.8-0.1l0 241.7c-0.9 0-1.8-0.1-2.8-0.1-11.7-0.2-28.4-0.8-48.5-1.1" fill="#acdcdc"/></g><path d="m5667.7 2895.5c-12.7 134.7-21.4 268.8-14.8 338.7 23.9-14.3 59.1-40.8 59.1-73.4l31-265.3zm-36.2 404.3c-12.2-0.2-29.6-0.8-50.5-1.1-20.9-0.3-45.3-0.8-71.4-0.9-26.1-0.1-54-0.3-81.8-0.4-27.9 0.1-55.7 0.3-81.8 0.4-26.1 0.1-50.5 0.7-71.4 0.9-20.9 0.3-38.3 0.9-50.5 1.1-12.2 0.4-19.2 0.6-19.2 0.6-1.5 0-2.7 1.2-2.6 2.7 0.1 1.4 1.2 2.5 2.7 2.5 0 0 7 0.2 19.2 0.6 12.2 0.2 29.6 0.9 50.5 1.1 20.9 0.2 45.3 0.8 71.4 0.9 26.1 0.1 54 0.3 81.9 0.4 27.9-0.1 55.7-0.3 81.9-0.4 26.1-0.1 50.5-0.7 71.4-0.9 20.9-0.3 38.3-0.9 50.5-1.1 12.2-0.4 19.2-0.6 19.2-0.6 1.5-0.1 2.7-1.3 2.7-2.7 0-1.4-1.2-2.5-2.6-2.5 0 0-7-0.2-19.2-0.6zm-364.8-404.3 34.8 297.7c0 16.9 10.5 32 23.5 44.2l227.1 0c13-12.2 23.5-27.3 23.5-44.2l34.8-297.7zm-57.3 0-96.4 0 31 265.3c0 35.2 41.1 63.3 64.6 76.6l15.3 0c7.2-68.9-1.6-205.2-14.5-341.8zm24.2 492.1c0 0 6.1 0.2 16.7 0.6 10.6 0.2 25.8 0.9 44 1.1 18.2 0.3 39.4 0.8 62.2 0.9 22.8 0.1 47 0.2 71.3 0.4 24.3-0.1 48.5-0.3 71.3-0.4 22.8-0.1 44-0.7 62.2-0.9 18.2-0.3 33.4-0.9 44-1.1 10.6-0.4 16.7-0.6 16.7-0.6 1.5 0 2.7-1.3 2.6-2.7 0-1.4-1.2-2.5-2.6-2.5 0 0-6.1-0.2-16.7-0.6-10.6-0.2-25.8-0.8-44-1.1-18.2-0.2-39.4-0.8-62.2-0.9-22.7-0.1-47-0.3-71.3-0.4-24.3 0.1-48.5 0.3-71.3 0.4-22.7 0.1-44 0.7-62.2 0.9-18.2 0.3-33.4 0.9-44 1.1-10.6 0.4-16.7 0.6-16.7 0.6-1.5 0.1-2.7 1.3-2.6 2.7 0.1 1.4 1.2 2.5 2.6 2.5zm630.9-849.1c0 0-100.7 594.6-59.2 708 7.5 6.5 12.2 15.7 12.2 26.1l0 24.5c0 11.4-5.8 22.1-15.6 28.7l-88.7 60.1c17.1 15.3 24.6 39.6 18.9 78.4l-20.7 306.5c-13.3 90.8-95.1 158.4-191.5 158.4l-198.5 0c-96.5 0-178.2-67.6-191.5-158.4l-20.7-306.5c-6.5-44.5 4.2-70 27-84.6l-79.6-53.9c-9.8-6.6-15.6-17.3-15.6-28.7l0-24.5c0-4.8 1-9.3 2.8-13.5l-0.9 0.1c0.6-0.4 1.1-1.1 1.7-1.6 1.2-2.4 2.7-4.7 4.4-6.8 46-97.5-57.4-712.3-57.4-712.3 0 0-5.3-14.6 19.2-14.6 24.5 0 43.9 16.2 43.9 16.2l52 300.7 97.5 0c-17.9-176.6-40-194.3-40-194.3 0 0-4.8-13.1 17.3-13.1 22 0 39.5 14.6 39.5 14.6l39.4 192.9 356.5 0 39.4-192.9c0 0 17.5-14.6 39.5-14.6 22 0 17.3 13.1 17.3 13.1 0 0-22.1 17.7-40 194.3l76.4 0 52-300.7c0 0 19.4-16.2 43.9-16.2 24.5 0 19.2 14.6 19.2 14.6" fill="#acdcdc"/><g transform="translate(374.92303,-57.28)" fill="#acdcdc"><path d="m1724 3763.1 525.3 0 0 80.8-525.3 0 0-80.8zm571.1-553c0 0-9.6-0.2-26.5-0.6-16.9-0.3-41-0.7-70-1.2-28.9-0.3-62.7-0.9-98.9-1-36.2-0.1-74.8-0.3-113.4-0.4-38.6 0.1-77.2 0.3-113.4 0.4-36.2 0.1-70 0.7-98.9 1-29 0.3-53.1 1-70 1.2-16.9 0.4-26.5 0.7-26.5 0.7-1.6 0-2.8 1.3-2.8 2.9 0 1.5 1.3 2.7 2.8 2.8 0 0 9.7 0.2 26.5 0.7 16.9 0.3 41 0.9 70 1.2 29 0.3 62.7 0.9 98.9 1 36.2 0.1 74.8 0.3 113.4 0.4 38.6-0.1 77.2-0.3 113.4-0.4 36.2-0.1 70-0.7 98.9-1 29-0.5 53.1-0.9 70-1.2 16.9-0.4 26.5-0.6 26.5-0.6 1.6 0 2.8-1.3 2.8-2.9 0-1.5-1.3-2.7-2.8-2.8zm-571.1 402.9 525.3 0 0-326.1-525.3 0 0 326.1zm594.5-409.8-34.6 83.7 0 603.2-34.6 0 0-46.2 20.2 0 0-80.8-20.2 0 0-69.3-525.3 0 0 69.3-26 0 0 80.8 26 0 0 46.2-34.6 0 0-603.2-8.7 0-34.6-83.7 0.3 0-1.1-1.9 0-21.2 0.7 0 0-603.2 49.1 0 0 603.2 20.2 0 0-477.6 49.1 0 0 477.7 434.8 0 0-477.6 49.1 0 0 477.7 21.2 0 0-603.2 49.1 0 0 624.4-1.1 1.9 1.1 0 -69.3 559.9 20.2 0 0 80.8-20.2 0 0-80.8zm-551.2 0 26 0 0 80.8-26 0 0-80.8z" fill="#acdcdc"/></g><path d="m4139.6 3022.4c0 0-7.2-0.2-19.8-0.6-12.6-0.3-30.7-0.7-52.3-1.1-21.7-0.3-46.9-0.8-74-0.9-27.1-0.1-55.9-0.3-84.8-0.4-28.9 0.1-57.7 0.3-84.8 0.4-27.1 0.1-52.3 0.7-74 0.9-21.7 0.3-39.7 0.9-52.3 1.2-12.6 0.4-19.8 0.6-19.8 0.6-1.5 0-2.6 1.3-2.6 2.7 0 1.4 1.2 2.5 2.6 2.6 0 0 7.2 0.2 19.9 0.6 12.6 0.3 30.7 0.9 52.3 1.1 21.7 0.3 46.9 0.9 74 0.9 27.1 0.1 56 0.3 84.8 0.4 28.9-0.1 57.8-0.3 84.8-0.4 27.1-0.1 52.3-0.7 74-0.9 21.7-0.5 39.7-0.9 52.3-1.1 12.6-0.4 19.9-0.6 19.9-0.6 1.5 0 2.6-1.3 2.6-2.7 0-1.4-1.2-2.5-2.6-2.6zm-445.8 220 0 53.7c0 41.5 27 77.7 65.4 87.1 32.6 8 75.6 15.2 124.5 15.2 50.8 0 97.1-7.7 132.1-16.1 38.8-9.2 66.5-45.4 66.5-87.3l0-145.4c0-25.4-20.6-46-46-46l-296.5 0c-25.4 0-46 20.6-46 46l0 92.9zm567.8-204.9-66.4 66.4c-0.2 0.2-0.3 0.3-0.5 0.4l0 328.7c0 0.2 0 0.5 0 0.7l0 78.7c0 62.9-43.6 117.1-105 131-55.3 12.5-128.3 24.1-208.6 24.1-77.2 0-145.1-10.8-196.6-22.7-60.6-14.1-103.3-68.4-103.3-130.6l0-80.5c0-4.9 0.3-9.8 0.8-14.5l0-314.9c-0.1-0.1-0.3-0.2-0.4-0.4l-66.4-66.4c-4.1-4.1-6.4-9.7-6.4-15.5l0-24.3c0-0.2 0-0.3 0-0.5-0.2-1-0.2-2.1-0.2-3.2l19.2-459.4c0.4-8.4 7.1-15 15.3-15l29.6 0c8.2 0 14.9 6.6 15.2 15l18.5 441.1 29.2 0 14.6-347.9c0.3-6.7 5.7-12 12.3-12l23.8 0c6.6 0 12 5.3 12.3 12.1l14.6 347.9 342.9 0 14.6-347.9c0.3-6.7 5.7-12 12.3-12l23.8 0c6.6 0 12 5.3 12.3 12.1l14.6 347.9 36 0 18.5-441.1c0.4-8.4 7.1-15 15.2-15l29.6 0c8.2 0 14.9 6.6 15.2 15l19.1 457.5c0.5 1.8 0.8 3.6 0.8 5.5l0 24.3c0 5.8-2.3 11.4-6.4 15.5" fill="#acdcdc"/></g></g></svg>